<svg xmlns="http://www.w3.org/2000/svg" xmlns:xlink="http://www.w3.org/1999/xlink" width="500" zoomAndPan="magnify" viewBox="0 0 375 374.999991" height="500" preserveAspectRatio="xMidYMid meet" version="1.2"><defs><clipPath id="93c979acd2"><path d="M 258.710938 105.726562 L 374.984375 105.726562 L 374.984375 269.234375 L 258.710938 269.234375 Z M 258.710938 105.726562 "/></clipPath><clipPath id="bc40caf4cb"><path d="M 258.710938 269.234375 L 327.785156 269.234375 L 374.984375 187.496094 L 327.785156 105.761719 L 258.710938 105.761719 L 305.910156 187.496094 Z M 258.710938 269.234375 "/></clipPath><clipPath id="268f405db9"><path d="M 0 105.21875 L 292.160156 105.21875 L 292.160156 269.234375 L 0 269.234375 Z M 0 105.21875 "/></clipPath><clipPath id="80d795ea16"><path d="M -2.488281 269.234375 L 244.960938 269.234375 L 292.160156 187.496094 L 244.960938 105.761719 L -2.488281 105.761719 L 44.710938 187.496094 Z M -2.488281 269.234375 "/></clipPath><clipPath id="43af6b4eed"><path d="M 56.0625 149.488281 L 243 149.488281 L 243 224.644531 L 56.0625 224.644531 Z M 56.0625 149.488281 "/></clipPath><clipPath id="b12103adc9"><path d="M 239.582031 209.820312 L 238.761719 209.820312 L 241.066406 198.816406 C 241.589844 196.507812 240.992188 192.867188 239.878906 190.785156 L 224.558594 163.269531 C 223.371094 161.1875 220.46875 159.480469 218.089844 159.480469 L 188.941406 159.480469 C 186.5625 159.480469 184.183594 161.410156 183.738281 163.71875 L 171.691406 220.230469 C 171.171875 222.535156 172.730469 224.46875 175.109375 224.46875 L 189.164062 224.46875 C 190.726562 217.183594 197.867188 211.308594 205.152344 211.308594 C 212.441406 211.308594 217.050781 217.183594 215.5625 224.46875 L 231.402344 224.46875 C 231.550781 224.46875 231.625 224.46875 231.773438 224.46875 C 231.847656 224.46875 231.996094 224.46875 232.070312 224.46875 L 236.53125 224.46875 C 238.09375 224.46875 239.65625 223.203125 240.027344 221.644531 L 241.960938 212.644531 C 242.257812 211.085938 241.21875 209.820312 239.582031 209.820312 Z M 230.582031 189.964844 C 230.359375 191.082031 228.875 192.046875 227.238281 192.046875 L 191.246094 192.046875 C 189.6875 192.046875 188.644531 190.785156 188.941406 189.222656 L 193.402344 168.179688 C 193.703125 166.617188 195.335938 165.351562 196.898438 165.351562 L 215.488281 165.351562 C 217.050781 165.351562 218.984375 166.46875 219.800781 167.882812 L 229.617188 185.503906 C 230.433594 186.769531 230.808594 188.777344 230.582031 189.964844 Z M 80.304688 206.769531 L 168.9375 206.769531 L 165.964844 220.675781 L 129.75 220.675781 L 120.53125 211.679688 L 79.261719 211.679688 Z M 173.027344 187.734375 L 170.054688 201.640625 L 136.59375 201.640625 L 127.445312 192.71875 L 71.601562 192.71875 L 72.644531 187.734375 Z M 134.140625 173.605469 L 63.792969 173.605469 L 64.835938 168.699219 L 177.042969 168.699219 L 174.070312 182.605469 L 143.359375 182.605469 Z M 140.609375 154.570312 L 56.0625 154.570312 L 57.101562 149.664062 L 181.132812 149.664062 L 178.160156 163.570312 L 149.828125 163.570312 Z M 140.609375 154.570312 "/></clipPath></defs><g id="8a171a9158"><g clip-rule="nonzero" clip-path="url(#93c979acd2)"><g clip-rule="nonzero" clip-path="url(#bc40caf4cb)"><path style=" stroke:none;fill-rule:nonzero;fill:#073b4c;fill-opacity:1;" d="M 374.984375 269.234375 L 258.710938 269.234375 L 258.710938 105.726562 L 374.984375 105.726562 Z M 374.984375 269.234375 "/></g></g><g clip-rule="nonzero" clip-path="url(#268f405db9)"><g clip-rule="nonzero" clip-path="url(#80d795ea16)"><path style=" stroke:none;fill-rule:nonzero;fill:#118ab2;fill-opacity:1;" d="M 292.160156 269.234375 L -2.488281 269.234375 L -2.488281 105.792969 L 292.160156 105.792969 Z M 292.160156 269.234375 "/></g></g><g clip-rule="nonzero" clip-path="url(#43af6b4eed)"><g clip-rule="nonzero" clip-path="url(#b12103adc9)"><path style=" stroke:none;fill-rule:nonzero;fill:#ffffff;fill-opacity:1;" d="M 56.0625 149.664062 L 56.0625 224.46875 L 242.257812 224.46875 L 242.257812 149.664062 Z M 56.0625 149.664062 "/></g></g></g></svg>