<svg xmlns="http://www.w3.org/2000/svg" xmlns:xlink="http://www.w3.org/1999/xlink" width="500" zoomAndPan="magnify" viewBox="0 0 375 374.999991" height="500" preserveAspectRatio="xMidYMid meet" version="1.2"><defs><clipPath id="7b58043f98"><path d="M 234.035156 92.78125 L 294.085938 92.78125 L 294.085938 177.230469 L 234.035156 177.230469 Z M 234.035156 92.78125 "/></clipPath><clipPath id="137b02392f"><path d="M 234.035156 177.230469 L 269.710938 177.230469 L 294.085938 135.015625 L 269.710938 92.800781 L 234.035156 92.800781 L 258.410156 135.015625 Z M 234.035156 177.230469 "/></clipPath><clipPath id="3939b1210a"><path d="M 99.125 92.519531 L 251.308594 92.519531 L 251.308594 177.230469 L 99.125 177.230469 Z M 99.125 92.519531 "/></clipPath><clipPath id="91e39a0ffc"><path d="M 99.125 177.230469 L 226.929688 177.230469 L 251.308594 135.015625 L 226.929688 92.800781 L 99.125 92.800781 L 123.503906 135.015625 Z M 99.125 177.230469 "/></clipPath><clipPath id="71caa63ffd"><path d="M 129.367188 115.386719 L 226 115.386719 L 226 154.203125 L 129.367188 154.203125 Z M 129.367188 115.386719 "/></clipPath><clipPath id="ff78159ad6"><path d="M 224.152344 146.546875 L 223.730469 146.546875 L 224.921875 140.863281 C 225.191406 139.671875 224.882812 137.789062 224.308594 136.714844 L 216.394531 122.503906 C 215.78125 121.429688 214.28125 120.542969 213.054688 120.542969 L 198 120.542969 C 196.769531 120.542969 195.539062 121.542969 195.308594 122.734375 L 189.089844 151.921875 C 188.820312 153.113281 189.625 154.113281 190.855469 154.113281 L 198.113281 154.113281 C 198.921875 150.347656 202.605469 147.3125 206.371094 147.3125 C 210.136719 147.3125 212.515625 150.347656 211.746094 154.113281 L 219.929688 154.113281 C 220.003906 154.113281 220.042969 154.113281 220.121094 154.113281 C 220.160156 154.113281 220.234375 154.113281 220.273438 154.113281 L 222.578125 154.113281 C 223.386719 154.113281 224.191406 153.457031 224.382812 152.652344 L 225.382812 148.003906 C 225.535156 147.199219 224.996094 146.546875 224.152344 146.546875 Z M 219.507812 136.292969 C 219.390625 136.867188 218.621094 137.367188 217.777344 137.367188 L 199.1875 137.367188 C 198.382812 137.367188 197.84375 136.714844 198 135.90625 L 200.304688 125.039062 C 200.457031 124.230469 201.300781 123.578125 202.109375 123.578125 L 211.710938 123.578125 C 212.515625 123.578125 213.515625 124.15625 213.9375 124.882812 L 219.007812 133.988281 C 219.429688 134.640625 219.621094 135.675781 219.507812 136.292969 Z M 141.886719 144.972656 L 187.667969 144.972656 L 186.128906 152.152344 L 167.425781 152.152344 L 162.664062 147.507812 L 141.347656 147.507812 Z M 189.78125 135.140625 L 188.242188 142.320312 L 170.960938 142.320312 L 166.238281 137.710938 L 137.394531 137.710938 L 137.929688 135.140625 Z M 169.691406 127.84375 L 133.359375 127.84375 L 133.898438 125.308594 L 191.851562 125.308594 L 190.316406 132.488281 L 174.457031 132.488281 Z M 173.035156 118.011719 L 129.367188 118.011719 L 129.902344 115.476562 L 193.964844 115.476562 L 192.429688 122.65625 L 177.796875 122.65625 Z M 173.035156 118.011719 "/></clipPath></defs><g id="428eb2388e"><g clip-rule="nonzero" clip-path="url(#7b58043f98)"><g clip-rule="nonzero" clip-path="url(#137b02392f)"><path style=" stroke:none;fill-rule:nonzero;fill:#073b4c;fill-opacity:1;" d="M 294.085938 177.230469 L 234.035156 177.230469 L 234.035156 92.78125 L 294.085938 92.78125 Z M 294.085938 177.230469 "/></g></g><g clip-rule="nonzero" clip-path="url(#3939b1210a)"><g clip-rule="nonzero" clip-path="url(#91e39a0ffc)"><path style=" stroke:none;fill-rule:nonzero;fill:#118ab2;fill-opacity:1;" d="M 251.308594 177.230469 L 99.125 177.230469 L 99.125 92.816406 L 251.308594 92.816406 Z M 251.308594 177.230469 "/></g></g><g clip-rule="nonzero" clip-path="url(#71caa63ffd)"><g clip-rule="nonzero" clip-path="url(#ff78159ad6)"><path style=" stroke:none;fill-rule:nonzero;fill:#ffffff;fill-opacity:1;" d="M 129.367188 115.476562 L 129.367188 154.113281 L 225.535156 154.113281 L 225.535156 115.476562 Z M 129.367188 115.476562 "/></g></g><g style="fill:#073b4c;fill-opacity:1;"><g transform="translate(12.130297, 245.469361)"><path style="stroke:none" d="M 6.921875 0 L 13.390625 -24.140625 L 3.875 -24.140625 L 5.921875 -31.875 L 33.84375 -31.875 L 31.796875 -24.140625 L 22.234375 -24.140625 L 15.765625 0 Z M 6.921875 0 "/></g></g><g style="fill:#073b4c;fill-opacity:1;"><g transform="translate(41.493471, 245.469361)"><path style="stroke:none" d="M 19.078125 0 L 14.84375 -9.65625 L 10.9375 -9.65625 L 8.328125 0 L -0.546875 0 L 8.0625 -31.875 L 20.09375 -31.875 C 22.726562 -31.875 24.941406 -31.59375 26.734375 -31.03125 C 28.523438 -30.476562 29.953125 -29.671875 31.015625 -28.609375 C 31.867188 -27.753906 32.492188 -26.765625 32.890625 -25.640625 C 33.285156 -24.515625 33.484375 -23.316406 33.484375 -22.046875 C 33.484375 -20.554688 33.238281 -19.148438 32.75 -17.828125 C 32.257812 -16.503906 31.5 -15.34375 30.46875 -14.34375 C 29.800781 -13.675781 28.9375 -13.023438 27.875 -12.390625 C 26.8125 -11.753906 25.472656 -11.207031 23.859375 -10.75 L 28.828125 0 Z M 12.75 -16.578125 L 17.8125 -16.578125 C 19.019531 -16.578125 20.09375 -16.726562 21.03125 -17.03125 C 21.976562 -17.332031 22.726562 -17.757812 23.28125 -18.3125 C 23.644531 -18.675781 23.921875 -19.082031 24.109375 -19.53125 C 24.304688 -19.988281 24.40625 -20.492188 24.40625 -21.046875 C 24.40625 -21.472656 24.335938 -21.859375 24.203125 -22.203125 C 24.066406 -22.554688 23.847656 -22.867188 23.546875 -23.140625 C 23.179688 -23.503906 22.679688 -23.785156 22.046875 -23.984375 C 21.410156 -24.179688 20.617188 -24.28125 19.671875 -24.28125 L 14.84375 -24.28125 Z M 12.75 -16.578125 "/></g></g><g style="fill:#073b4c;fill-opacity:1;"><g transform="translate(74.270972, 245.469361)"><path style="stroke:none" d="M -3.375 0 L 18.8125 -32.109375 L 27.46875 -32.109375 L 32.421875 0 L 23.140625 0 L 22.359375 -5.734375 L 10.0625 -5.734375 L 6.234375 0 Z M 14.53125 -12.609375 L 21.6875 -12.609375 L 20.5 -21.71875 Z M 14.53125 -12.609375 "/></g></g><g style="fill:#073b4c;fill-opacity:1;"><g transform="translate(109.552314, 245.469361)"><path style="stroke:none" d="M -0.546875 0 L 8.0625 -31.875 L 16.265625 -31.875 L 24.546875 -14.171875 L 29.328125 -31.875 L 38.078125 -31.875 L 29.515625 0 L 21.765625 0 L 13.15625 -18.40625 L 8.25 0 Z M -0.546875 0 "/></g></g><g style="fill:#073b4c;fill-opacity:1;"><g transform="translate(145.106794, 245.469361)"><path style="stroke:none" d="M 13.75 0.546875 C 10.65625 0.546875 7.847656 0.03125 5.328125 -1 C 2.804688 -2.03125 0.679688 -3.457031 -1.046875 -5.28125 L 4.640625 -11.15625 C 6.191406 -9.726562 7.785156 -8.648438 9.421875 -7.921875 C 11.066406 -7.191406 12.753906 -6.828125 14.484375 -6.828125 C 15.515625 -6.828125 16.367188 -7.039062 17.046875 -7.46875 C 17.734375 -7.894531 18.078125 -8.472656 18.078125 -9.203125 C 18.078125 -9.835938 17.742188 -10.378906 17.078125 -10.828125 C 16.410156 -11.285156 14.96875 -11.941406 12.75 -12.796875 C 10.257812 -13.765625 8.265625 -14.882812 6.765625 -16.15625 C 5.265625 -17.4375 4.515625 -19.25 4.515625 -21.59375 C 4.515625 -22.957031 4.769531 -24.226562 5.28125 -25.40625 C 5.800781 -26.59375 6.515625 -27.644531 7.421875 -28.5625 C 8.640625 -29.769531 10.160156 -30.710938 11.984375 -31.390625 C 13.804688 -32.078125 15.804688 -32.421875 17.984375 -32.421875 C 20.785156 -32.421875 23.285156 -31.992188 25.484375 -31.140625 C 27.679688 -30.296875 29.539062 -29.144531 31.0625 -27.6875 L 25.59375 -21.640625 C 24.382812 -22.671875 23.078125 -23.503906 21.671875 -24.140625 C 20.273438 -24.773438 18.773438 -25.09375 17.171875 -25.09375 C 16.109375 -25.09375 15.265625 -24.875 14.640625 -24.4375 C 14.015625 -24 13.703125 -23.472656 13.703125 -22.859375 C 13.703125 -22.191406 14.046875 -21.648438 14.734375 -21.234375 C 15.421875 -20.828125 16.851562 -20.203125 19.03125 -19.359375 C 21.5 -18.421875 23.5 -17.296875 25.03125 -15.984375 C 26.5625 -14.679688 27.328125 -12.84375 27.328125 -10.46875 C 27.328125 -9.039062 27.066406 -7.71875 26.546875 -6.5 C 26.035156 -5.289062 25.3125 -4.21875 24.375 -3.28125 C 23.15625 -2.0625 21.625 -1.117188 19.78125 -0.453125 C 17.945312 0.210938 15.9375 0.546875 13.75 0.546875 Z M 13.75 0.546875 "/></g></g><g style="fill:#073b4c;fill-opacity:1;"><g transform="translate(174.469968, 245.469361)"><path style="stroke:none" d="M -0.546875 0 L 8.0625 -31.875 L 18.453125 -31.875 C 21.054688 -31.875 23.238281 -31.609375 25 -31.078125 C 26.757812 -30.546875 28.21875 -29.691406 29.375 -28.515625 C 30.226562 -27.691406 30.859375 -26.734375 31.265625 -25.640625 C 31.671875 -24.546875 31.875 -23.347656 31.875 -22.046875 C 31.875 -20.316406 31.585938 -18.738281 31.015625 -17.3125 C 30.441406 -15.882812 29.59375 -14.609375 28.46875 -13.484375 C 27.101562 -12.117188 25.359375 -11.054688 23.234375 -10.296875 C 21.109375 -9.535156 18.722656 -9.15625 16.078125 -9.15625 L 10.796875 -9.15625 L 8.328125 0 Z M 21.953125 -23.28125 C 21.523438 -23.695312 20.984375 -23.992188 20.328125 -24.171875 C 19.679688 -24.359375 18.945312 -24.453125 18.125 -24.453125 L 14.84375 -24.453125 L 12.609375 -16.03125 L 15.984375 -16.03125 C 17.203125 -16.03125 18.285156 -16.1875 19.234375 -16.5 C 20.191406 -16.820312 20.976562 -17.273438 21.59375 -17.859375 C 21.988281 -18.273438 22.289062 -18.75 22.5 -19.28125 C 22.707031 -19.820312 22.8125 -20.394531 22.8125 -21 C 22.8125 -21.425781 22.742188 -21.832031 22.609375 -22.21875 C 22.472656 -22.613281 22.253906 -22.96875 21.953125 -23.28125 Z M 21.953125 -23.28125 "/></g></g><g style="fill:#073b4c;fill-opacity:1;"><g transform="translate(205.062303, 245.469361)"><path style="stroke:none" d="M 21.359375 -32.46875 C 23.640625 -32.46875 25.710938 -32.101562 27.578125 -31.375 C 29.441406 -30.644531 31.039062 -29.644531 32.375 -28.375 C 33.71875 -27.101562 34.753906 -25.59375 35.484375 -23.84375 C 36.210938 -22.09375 36.578125 -20.21875 36.578125 -18.21875 C 36.578125 -15.757812 36.082031 -13.359375 35.09375 -11.015625 C 34.101562 -8.679688 32.742188 -6.648438 31.015625 -4.921875 C 29.347656 -3.273438 27.367188 -1.941406 25.078125 -0.921875 C 22.785156 0.0859375 20.300781 0.59375 17.625 0.59375 C 15.34375 0.59375 13.269531 0.226562 11.40625 -0.5 C 9.539062 -1.226562 7.9375 -2.226562 6.59375 -3.5 C 5.257812 -4.78125 4.226562 -6.300781 3.5 -8.0625 C 2.769531 -9.820312 2.40625 -11.703125 2.40625 -13.703125 C 2.40625 -16.171875 2.898438 -18.566406 3.890625 -20.890625 C 4.878906 -23.210938 6.238281 -25.238281 7.96875 -26.96875 C 9.632812 -28.632812 11.613281 -29.96875 13.90625 -30.96875 C 16.207031 -31.96875 18.691406 -32.46875 21.359375 -32.46875 Z M 18.40625 -7.328125 C 19.613281 -7.328125 20.734375 -7.570312 21.765625 -8.0625 C 22.796875 -8.550781 23.691406 -9.171875 24.453125 -9.921875 C 25.429688 -10.898438 26.195312 -12.070312 26.75 -13.4375 C 27.3125 -14.800781 27.59375 -16.148438 27.59375 -17.484375 C 27.59375 -19.492188 26.992188 -21.171875 25.796875 -22.515625 C 24.597656 -23.867188 22.863281 -24.546875 20.59375 -24.546875 C 19.375 -24.546875 18.25 -24.3125 17.21875 -23.84375 C 16.1875 -23.375 15.289062 -22.757812 14.53125 -22 C 13.5625 -21 12.796875 -19.8125 12.234375 -18.4375 C 11.671875 -17.070312 11.390625 -15.722656 11.390625 -14.390625 C 11.390625 -12.390625 11.988281 -10.710938 13.1875 -9.359375 C 14.382812 -8.003906 16.125 -7.328125 18.40625 -7.328125 Z M 18.40625 -7.328125 "/></g></g><g style="fill:#073b4c;fill-opacity:1;"><g transform="translate(242.119098, 245.469361)"><path style="stroke:none" d="M -0.546875 0 L 8.0625 -31.875 L 33.515625 -31.875 L 31.421875 -24.140625 L 14.796875 -24.140625 L 13.34375 -18.71875 L 28.375 -18.71875 L 26.421875 -11.390625 L 11.390625 -11.390625 L 8.328125 0 Z M -0.546875 0 "/></g></g><g style="fill:#073b4c;fill-opacity:1;"><g transform="translate(271.800946, 245.469361)"><path style="stroke:none" d="M -0.546875 0 L 8.0625 -31.875 L 16.890625 -31.875 L 10.4375 -7.75 L 25.640625 -7.75 L 23.546875 0 Z M -0.546875 0 "/></g></g><g style="fill:#073b4c;fill-opacity:1;"><g transform="translate(299.934977, 245.469361)"><path style="stroke:none" d="M -0.546875 0 L 8.0625 -31.875 L 33.5625 -31.875 L 31.515625 -24.40625 L 14.75 -24.40625 L 13.4375 -19.546875 L 28.65625 -19.546875 L 26.78125 -12.609375 L 11.5625 -12.609375 L 10.203125 -7.515625 L 27.234375 -7.515625 L 25.234375 0 Z M -0.546875 0 "/></g></g><g style="fill:#073b4c;fill-opacity:1;"><g transform="translate(330.390751, 245.469361)"><path style="stroke:none" d="M -3.421875 0 L 12.15625 -16.671875 L 5.515625 -31.875 L 15.21875 -31.875 L 18.71875 -22.90625 L 26.59375 -31.875 L 37.25 -31.875 L 22.5 -16.03125 L 29.515625 0 L 19.8125 0 L 15.9375 -9.890625 L 7.28125 0 Z M -3.421875 0 "/></g></g><g style="fill:#073b4c;fill-opacity:1;"><g transform="translate(41.801085, 276.304666)"><path style="stroke:none" d="M 5.171875 -11.703125 L 0.71875 -11.703125 L 0.71875 -14.671875 L 12.875 -14.671875 L 12.875 -11.703125 L 8.40625 -11.703125 L 8.40625 0 L 5.171875 0 Z M 5.171875 -11.703125 "/></g></g><g style="fill:#073b4c;fill-opacity:1;"><g transform="translate(55.383486, 276.304666)"><path style="stroke:none" d="M 1.421875 -11.234375 L 4.609375 -11.234375 L 4.609375 -8.96875 C 4.929688 -9.738281 5.367188 -10.351562 5.921875 -10.8125 C 6.484375 -11.28125 7.242188 -11.492188 8.203125 -11.453125 L 8.203125 -8.109375 L 8.03125 -8.109375 C 6.96875 -8.109375 6.128906 -7.785156 5.515625 -7.140625 C 4.910156 -6.503906 4.609375 -5.507812 4.609375 -4.15625 L 4.609375 0 L 1.421875 0 Z M 1.421875 -11.234375 "/></g></g><g style="fill:#073b4c;fill-opacity:1;"><g transform="translate(64.144971, 276.304666)"><path style="stroke:none" d="M 4.609375 0.203125 C 4.078125 0.203125 3.578125 0.128906 3.109375 -0.015625 C 2.640625 -0.160156 2.226562 -0.378906 1.875 -0.671875 C 1.53125 -0.960938 1.253906 -1.320312 1.046875 -1.75 C 0.847656 -2.175781 0.75 -2.671875 0.75 -3.234375 L 0.75 -3.265625 C 0.75 -3.878906 0.859375 -4.410156 1.078125 -4.859375 C 1.304688 -5.304688 1.617188 -5.675781 2.015625 -5.96875 C 2.421875 -6.269531 2.898438 -6.492188 3.453125 -6.640625 C 4.003906 -6.785156 4.613281 -6.859375 5.28125 -6.859375 C 5.851562 -6.859375 6.351562 -6.816406 6.78125 -6.734375 C 7.207031 -6.648438 7.625 -6.535156 8.03125 -6.390625 L 8.03125 -6.578125 C 8.03125 -7.253906 7.828125 -7.765625 7.421875 -8.109375 C 7.015625 -8.460938 6.414062 -8.640625 5.625 -8.640625 C 5.007812 -8.640625 4.46875 -8.585938 4 -8.484375 C 3.53125 -8.378906 3.035156 -8.226562 2.515625 -8.03125 L 1.71875 -10.46875 C 2.332031 -10.726562 2.972656 -10.941406 3.640625 -11.109375 C 4.316406 -11.273438 5.128906 -11.359375 6.078125 -11.359375 C 6.960938 -11.359375 7.710938 -11.25 8.328125 -11.03125 C 8.953125 -10.820312 9.46875 -10.515625 9.875 -10.109375 C 10.289062 -9.691406 10.597656 -9.175781 10.796875 -8.5625 C 10.992188 -7.957031 11.09375 -7.273438 11.09375 -6.515625 L 11.09375 0 L 8.015625 0 L 8.015625 -1.21875 C 7.617188 -0.78125 7.144531 -0.429688 6.59375 -0.171875 C 6.050781 0.078125 5.390625 0.203125 4.609375 0.203125 Z M 5.578125 -1.984375 C 6.328125 -1.984375 6.929688 -2.164062 7.390625 -2.53125 C 7.847656 -2.894531 8.078125 -3.375 8.078125 -3.96875 L 8.078125 -4.53125 C 7.796875 -4.65625 7.484375 -4.753906 7.140625 -4.828125 C 6.796875 -4.910156 6.425781 -4.953125 6.03125 -4.953125 C 5.351562 -4.953125 4.816406 -4.816406 4.421875 -4.546875 C 4.035156 -4.285156 3.84375 -3.898438 3.84375 -3.390625 L 3.84375 -3.359375 C 3.84375 -2.921875 4 -2.582031 4.3125 -2.34375 C 4.632812 -2.101562 5.054688 -1.984375 5.578125 -1.984375 Z M 5.578125 -1.984375 "/></g></g><g style="fill:#073b4c;fill-opacity:1;"><g transform="translate(76.553574, 276.304666)"><path style="stroke:none" d="M 1.421875 -11.234375 L 4.609375 -11.234375 L 4.609375 -9.640625 C 4.796875 -9.878906 4.992188 -10.109375 5.203125 -10.328125 C 5.421875 -10.546875 5.660156 -10.738281 5.921875 -10.90625 C 6.191406 -11.070312 6.488281 -11.203125 6.8125 -11.296875 C 7.132812 -11.398438 7.5 -11.453125 7.90625 -11.453125 C 9.125 -11.453125 10.0625 -11.078125 10.71875 -10.328125 C 11.382812 -9.585938 11.71875 -8.570312 11.71875 -7.28125 L 11.71875 0 L 8.53125 0 L 8.53125 -6.265625 C 8.53125 -7.023438 8.363281 -7.597656 8.03125 -7.984375 C 7.695312 -8.367188 7.222656 -8.5625 6.609375 -8.5625 C 5.992188 -8.5625 5.503906 -8.367188 5.140625 -7.984375 C 4.785156 -7.597656 4.609375 -7.023438 4.609375 -6.265625 L 4.609375 0 L 1.421875 0 Z M 1.421875 -11.234375 "/></g></g><g style="fill:#073b4c;fill-opacity:1;"><g transform="translate(89.611965, 276.304666)"><path style="stroke:none" d="M 5.375 0.203125 C 4.570312 0.203125 3.753906 0.0664062 2.921875 -0.203125 C 2.085938 -0.472656 1.296875 -0.898438 0.546875 -1.484375 L 1.90625 -3.578125 C 2.519531 -3.140625 3.128906 -2.804688 3.734375 -2.578125 C 4.347656 -2.359375 4.921875 -2.25 5.453125 -2.25 C 5.910156 -2.25 6.25 -2.320312 6.46875 -2.46875 C 6.6875 -2.625 6.796875 -2.828125 6.796875 -3.078125 L 6.796875 -3.125 C 6.796875 -3.289062 6.734375 -3.4375 6.609375 -3.5625 C 6.484375 -3.6875 6.3125 -3.796875 6.09375 -3.890625 C 5.875 -3.984375 5.625 -4.070312 5.34375 -4.15625 C 5.0625 -4.238281 4.769531 -4.328125 4.46875 -4.421875 C 4.070312 -4.535156 3.675781 -4.671875 3.28125 -4.828125 C 2.882812 -4.992188 2.523438 -5.203125 2.203125 -5.453125 C 1.878906 -5.710938 1.613281 -6.03125 1.40625 -6.40625 C 1.207031 -6.789062 1.109375 -7.253906 1.109375 -7.796875 L 1.109375 -7.84375 C 1.109375 -8.414062 1.21875 -8.921875 1.4375 -9.359375 C 1.65625 -9.796875 1.945312 -10.171875 2.3125 -10.484375 C 2.6875 -10.796875 3.117188 -11.023438 3.609375 -11.171875 C 4.109375 -11.328125 4.644531 -11.40625 5.21875 -11.40625 C 5.9375 -11.40625 6.660156 -11.289062 7.390625 -11.0625 C 8.128906 -10.832031 8.804688 -10.515625 9.421875 -10.109375 L 8.203125 -7.90625 C 7.640625 -8.226562 7.09375 -8.484375 6.5625 -8.671875 C 6.03125 -8.859375 5.5625 -8.953125 5.15625 -8.953125 C 4.769531 -8.953125 4.476562 -8.878906 4.28125 -8.734375 C 4.082031 -8.585938 3.984375 -8.398438 3.984375 -8.171875 L 3.984375 -8.140625 C 3.984375 -7.984375 4.046875 -7.84375 4.171875 -7.71875 C 4.296875 -7.601562 4.460938 -7.492188 4.671875 -7.390625 C 4.878906 -7.285156 5.117188 -7.179688 5.390625 -7.078125 C 5.671875 -6.984375 5.960938 -6.890625 6.265625 -6.796875 C 6.660156 -6.671875 7.0625 -6.519531 7.46875 -6.34375 C 7.875 -6.164062 8.234375 -5.953125 8.546875 -5.703125 C 8.867188 -5.453125 9.132812 -5.144531 9.34375 -4.78125 C 9.5625 -4.414062 9.671875 -3.972656 9.671875 -3.453125 L 9.671875 -3.421875 C 9.671875 -2.785156 9.5625 -2.238281 9.34375 -1.78125 C 9.125 -1.332031 8.816406 -0.960938 8.421875 -0.671875 C 8.035156 -0.378906 7.578125 -0.160156 7.046875 -0.015625 C 6.523438 0.128906 5.96875 0.203125 5.375 0.203125 Z M 5.375 0.203125 "/></g></g><g style="fill:#073b4c;fill-opacity:1;"><g transform="translate(100.134129, 276.304666)"><path style="stroke:none" d="M 1.421875 -11.234375 L 4.609375 -11.234375 L 4.609375 -9.625 C 5.003906 -10.15625 5.476562 -10.59375 6.03125 -10.9375 C 6.582031 -11.28125 7.273438 -11.453125 8.109375 -11.453125 C 8.765625 -11.453125 9.398438 -11.320312 10.015625 -11.0625 C 10.640625 -10.8125 11.1875 -10.4375 11.65625 -9.9375 C 12.132812 -9.445312 12.515625 -8.84375 12.796875 -8.125 C 13.085938 -7.40625 13.234375 -6.578125 13.234375 -5.640625 L 13.234375 -5.59375 C 13.234375 -4.65625 13.085938 -3.828125 12.796875 -3.109375 C 12.515625 -2.390625 12.140625 -1.78125 11.671875 -1.28125 C 11.203125 -0.789062 10.660156 -0.421875 10.046875 -0.171875 C 9.429688 0.078125 8.785156 0.203125 8.109375 0.203125 C 7.253906 0.203125 6.550781 0.0351562 6 -0.296875 C 5.445312 -0.628906 4.984375 -1.019531 4.609375 -1.46875 L 4.609375 3.359375 L 1.421875 3.359375 Z M 7.296875 -2.5 C 7.671875 -2.5 8.019531 -2.570312 8.34375 -2.71875 C 8.675781 -2.863281 8.96875 -3.070312 9.21875 -3.34375 C 9.476562 -3.613281 9.679688 -3.9375 9.828125 -4.3125 C 9.972656 -4.695312 10.046875 -5.125 10.046875 -5.59375 L 10.046875 -5.640625 C 10.046875 -6.097656 9.972656 -6.519531 9.828125 -6.90625 C 9.679688 -7.289062 9.476562 -7.617188 9.21875 -7.890625 C 8.96875 -8.160156 8.675781 -8.367188 8.34375 -8.515625 C 8.019531 -8.671875 7.671875 -8.75 7.296875 -8.75 C 6.921875 -8.75 6.566406 -8.671875 6.234375 -8.515625 C 5.910156 -8.367188 5.625 -8.160156 5.375 -7.890625 C 5.132812 -7.617188 4.941406 -7.289062 4.796875 -6.90625 C 4.648438 -6.519531 4.578125 -6.097656 4.578125 -5.640625 L 4.578125 -5.59375 C 4.578125 -5.132812 4.648438 -4.710938 4.796875 -4.328125 C 4.941406 -3.941406 5.132812 -3.613281 5.375 -3.34375 C 5.625 -3.070312 5.910156 -2.863281 6.234375 -2.71875 C 6.566406 -2.570312 6.921875 -2.5 7.296875 -2.5 Z M 7.296875 -2.5 "/></g></g><g style="fill:#073b4c;fill-opacity:1;"><g transform="translate(114.282455, 276.304666)"><path style="stroke:none" d="M 6.9375 0.25 C 6.070312 0.25 5.269531 0.0976562 4.53125 -0.203125 C 3.789062 -0.503906 3.148438 -0.914062 2.609375 -1.4375 C 2.066406 -1.957031 1.640625 -2.570312 1.328125 -3.28125 C 1.023438 -3.988281 0.875 -4.75 0.875 -5.5625 L 0.875 -5.59375 C 0.875 -6.40625 1.023438 -7.164062 1.328125 -7.875 C 1.640625 -8.582031 2.066406 -9.203125 2.609375 -9.734375 C 3.160156 -10.265625 3.804688 -10.679688 4.546875 -10.984375 C 5.285156 -11.296875 6.097656 -11.453125 6.984375 -11.453125 C 7.847656 -11.453125 8.648438 -11.300781 9.390625 -11 C 10.128906 -10.695312 10.769531 -10.28125 11.3125 -9.75 C 11.851562 -9.226562 12.273438 -8.613281 12.578125 -7.90625 C 12.890625 -7.207031 13.046875 -6.453125 13.046875 -5.640625 L 13.046875 -5.59375 C 13.046875 -4.78125 12.890625 -4.019531 12.578125 -3.3125 C 12.273438 -2.613281 11.847656 -2 11.296875 -1.46875 C 10.753906 -0.9375 10.113281 -0.515625 9.375 -0.203125 C 8.632812 0.0976562 7.820312 0.25 6.9375 0.25 Z M 6.984375 -2.5 C 7.441406 -2.5 7.847656 -2.578125 8.203125 -2.734375 C 8.566406 -2.898438 8.875 -3.117188 9.125 -3.390625 C 9.375 -3.671875 9.5625 -3.992188 9.6875 -4.359375 C 9.820312 -4.734375 9.890625 -5.132812 9.890625 -5.5625 L 9.890625 -5.59375 C 9.890625 -6.019531 9.820312 -6.414062 9.6875 -6.78125 C 9.550781 -7.15625 9.347656 -7.484375 9.078125 -7.765625 C 8.816406 -8.054688 8.503906 -8.285156 8.140625 -8.453125 C 7.773438 -8.617188 7.375 -8.703125 6.9375 -8.703125 C 6.476562 -8.703125 6.066406 -8.617188 5.703125 -8.453125 C 5.347656 -8.296875 5.046875 -8.078125 4.796875 -7.796875 C 4.546875 -7.515625 4.351562 -7.1875 4.21875 -6.8125 C 4.09375 -6.445312 4.03125 -6.054688 4.03125 -5.640625 L 4.03125 -5.59375 C 4.03125 -5.175781 4.097656 -4.78125 4.234375 -4.40625 C 4.378906 -4.039062 4.582031 -3.710938 4.84375 -3.421875 C 5.101562 -3.140625 5.410156 -2.914062 5.765625 -2.75 C 6.128906 -2.582031 6.535156 -2.5 6.984375 -2.5 Z M 6.984375 -2.5 "/></g></g><g style="fill:#073b4c;fill-opacity:1;"><g transform="translate(128.200219, 276.304666)"><path style="stroke:none" d="M 1.421875 -11.234375 L 4.609375 -11.234375 L 4.609375 -8.96875 C 4.929688 -9.738281 5.367188 -10.351562 5.921875 -10.8125 C 6.484375 -11.28125 7.242188 -11.492188 8.203125 -11.453125 L 8.203125 -8.109375 L 8.03125 -8.109375 C 6.96875 -8.109375 6.128906 -7.785156 5.515625 -7.140625 C 4.910156 -6.503906 4.609375 -5.507812 4.609375 -4.15625 L 4.609375 0 L 1.421875 0 Z M 1.421875 -11.234375 "/></g></g><g style="fill:#073b4c;fill-opacity:1;"><g transform="translate(136.961704, 276.304666)"><path style="stroke:none" d="M 5.21875 0.1875 C 4.726562 0.1875 4.285156 0.132812 3.890625 0.03125 C 3.492188 -0.0703125 3.148438 -0.253906 2.859375 -0.515625 C 2.578125 -0.785156 2.351562 -1.132812 2.1875 -1.5625 C 2.03125 -1.988281 1.953125 -2.53125 1.953125 -3.1875 L 1.953125 -8.515625 L 0.609375 -8.515625 L 0.609375 -11.234375 L 1.953125 -11.234375 L 1.953125 -14.109375 L 5.140625 -14.109375 L 5.140625 -11.234375 L 7.78125 -11.234375 L 7.78125 -8.515625 L 5.140625 -8.515625 L 5.140625 -3.71875 C 5.140625 -2.988281 5.484375 -2.625 6.171875 -2.625 C 6.722656 -2.625 7.242188 -2.753906 7.734375 -3.015625 L 7.734375 -0.46875 C 7.398438 -0.269531 7.03125 -0.113281 6.625 0 C 6.21875 0.125 5.75 0.1875 5.21875 0.1875 Z M 5.21875 0.1875 "/></g></g><g style="fill:#073b4c;fill-opacity:1;"><g transform="translate(145.6603, 276.304666)"><path style="stroke:none" d=""/></g></g><g style="fill:#073b4c;fill-opacity:1;"><g transform="translate(151.948447, 276.304666)"><path style="stroke:none" d="M 9.9375 -1.421875 C 9.332031 -0.929688 8.675781 -0.535156 7.96875 -0.234375 C 7.269531 0.0546875 6.492188 0.203125 5.640625 0.203125 C 4.941406 0.203125 4.289062 0.109375 3.6875 -0.078125 C 3.082031 -0.273438 2.5625 -0.554688 2.125 -0.921875 C 1.6875 -1.296875 1.34375 -1.742188 1.09375 -2.265625 C 0.84375 -2.785156 0.71875 -3.375 0.71875 -4.03125 L 0.71875 -4.0625 C 0.71875 -5 0.960938 -5.800781 1.453125 -6.46875 C 1.941406 -7.132812 2.644531 -7.675781 3.5625 -8.09375 C 3.195312 -8.59375 2.929688 -9.082031 2.765625 -9.5625 C 2.609375 -10.039062 2.53125 -10.53125 2.53125 -11.03125 L 2.53125 -11.078125 C 2.53125 -11.578125 2.628906 -12.054688 2.828125 -12.515625 C 3.023438 -12.972656 3.3125 -13.378906 3.6875 -13.734375 C 4.0625 -14.097656 4.523438 -14.390625 5.078125 -14.609375 C 5.628906 -14.828125 6.265625 -14.9375 6.984375 -14.9375 C 7.609375 -14.9375 8.171875 -14.835938 8.671875 -14.640625 C 9.179688 -14.453125 9.617188 -14.191406 9.984375 -13.859375 C 10.347656 -13.523438 10.625 -13.132812 10.8125 -12.6875 C 11.007812 -12.238281 11.109375 -11.753906 11.109375 -11.234375 L 11.109375 -11.203125 C 11.109375 -10.710938 11.035156 -10.265625 10.890625 -9.859375 C 10.742188 -9.460938 10.535156 -9.109375 10.265625 -8.796875 C 9.992188 -8.492188 9.664062 -8.222656 9.28125 -7.984375 C 8.90625 -7.742188 8.488281 -7.535156 8.03125 -7.359375 L 9.984375 -5.40625 C 10.222656 -5.78125 10.457031 -6.179688 10.6875 -6.609375 C 10.925781 -7.035156 11.164062 -7.472656 11.40625 -7.921875 L 13.78125 -6.625 C 13.5 -6.101562 13.195312 -5.578125 12.875 -5.046875 C 12.550781 -4.515625 12.207031 -4.003906 11.84375 -3.515625 L 14 -1.359375 L 11.640625 0.296875 Z M 6.359375 -9.0625 C 6.992188 -9.300781 7.472656 -9.566406 7.796875 -9.859375 C 8.128906 -10.160156 8.296875 -10.546875 8.296875 -11.015625 L 8.296875 -11.046875 C 8.296875 -11.460938 8.164062 -11.789062 7.90625 -12.03125 C 7.65625 -12.28125 7.328125 -12.40625 6.921875 -12.40625 C 6.484375 -12.40625 6.132812 -12.269531 5.875 -12 C 5.625 -11.726562 5.5 -11.367188 5.5 -10.921875 L 5.5 -10.875 C 5.5 -10.5625 5.5625 -10.265625 5.6875 -9.984375 C 5.820312 -9.710938 6.046875 -9.40625 6.359375 -9.0625 Z M 6.015625 -2.4375 C 6.378906 -2.4375 6.738281 -2.507812 7.09375 -2.65625 C 7.445312 -2.800781 7.796875 -3.003906 8.140625 -3.265625 L 5.328125 -6.125 C 4.835938 -5.875 4.488281 -5.578125 4.28125 -5.234375 C 4.070312 -4.898438 3.96875 -4.550781 3.96875 -4.1875 L 3.96875 -4.15625 C 3.96875 -3.632812 4.15625 -3.21875 4.53125 -2.90625 C 4.914062 -2.59375 5.410156 -2.4375 6.015625 -2.4375 Z M 6.015625 -2.4375 "/></g></g><g style="fill:#073b4c;fill-opacity:1;"><g transform="translate(166.536939, 276.304666)"><path style="stroke:none" d=""/></g></g><g style="fill:#073b4c;fill-opacity:1;"><g transform="translate(172.825086, 276.304666)"><path style="stroke:none" d="M 1.765625 -14.671875 L 5.234375 -14.671875 L 9.09375 -8.46875 L 12.953125 -14.671875 L 16.4375 -14.671875 L 16.4375 0 L 13.234375 0 L 13.234375 -9.578125 L 9.09375 -3.3125 L 9.015625 -3.3125 L 4.921875 -9.515625 L 4.921875 0 L 1.765625 0 Z M 1.765625 -14.671875 "/></g></g><g style="fill:#073b4c;fill-opacity:1;"><g transform="translate(191.018782, 276.304666)"><path style="stroke:none" d="M 6.9375 0.25 C 6.070312 0.25 5.269531 0.0976562 4.53125 -0.203125 C 3.789062 -0.503906 3.148438 -0.914062 2.609375 -1.4375 C 2.066406 -1.957031 1.640625 -2.570312 1.328125 -3.28125 C 1.023438 -3.988281 0.875 -4.75 0.875 -5.5625 L 0.875 -5.59375 C 0.875 -6.40625 1.023438 -7.164062 1.328125 -7.875 C 1.640625 -8.582031 2.066406 -9.203125 2.609375 -9.734375 C 3.160156 -10.265625 3.804688 -10.679688 4.546875 -10.984375 C 5.285156 -11.296875 6.097656 -11.453125 6.984375 -11.453125 C 7.847656 -11.453125 8.648438 -11.300781 9.390625 -11 C 10.128906 -10.695312 10.769531 -10.28125 11.3125 -9.75 C 11.851562 -9.226562 12.273438 -8.613281 12.578125 -7.90625 C 12.890625 -7.207031 13.046875 -6.453125 13.046875 -5.640625 L 13.046875 -5.59375 C 13.046875 -4.78125 12.890625 -4.019531 12.578125 -3.3125 C 12.273438 -2.613281 11.847656 -2 11.296875 -1.46875 C 10.753906 -0.9375 10.113281 -0.515625 9.375 -0.203125 C 8.632812 0.0976562 7.820312 0.25 6.9375 0.25 Z M 6.984375 -2.5 C 7.441406 -2.5 7.847656 -2.578125 8.203125 -2.734375 C 8.566406 -2.898438 8.875 -3.117188 9.125 -3.390625 C 9.375 -3.671875 9.5625 -3.992188 9.6875 -4.359375 C 9.820312 -4.734375 9.890625 -5.132812 9.890625 -5.5625 L 9.890625 -5.59375 C 9.890625 -6.019531 9.820312 -6.414062 9.6875 -6.78125 C 9.550781 -7.15625 9.347656 -7.484375 9.078125 -7.765625 C 8.816406 -8.054688 8.503906 -8.285156 8.140625 -8.453125 C 7.773438 -8.617188 7.375 -8.703125 6.9375 -8.703125 C 6.476562 -8.703125 6.066406 -8.617188 5.703125 -8.453125 C 5.347656 -8.296875 5.046875 -8.078125 4.796875 -7.796875 C 4.546875 -7.515625 4.351562 -7.1875 4.21875 -6.8125 C 4.09375 -6.445312 4.03125 -6.054688 4.03125 -5.640625 L 4.03125 -5.59375 C 4.03125 -5.175781 4.097656 -4.78125 4.234375 -4.40625 C 4.378906 -4.039062 4.582031 -3.710938 4.84375 -3.421875 C 5.101562 -3.140625 5.410156 -2.914062 5.765625 -2.75 C 6.128906 -2.582031 6.535156 -2.5 6.984375 -2.5 Z M 6.984375 -2.5 "/></g></g><g style="fill:#073b4c;fill-opacity:1;"><g transform="translate(204.936546, 276.304666)"><path style="stroke:none" d="M 0.421875 -11.234375 L 3.796875 -11.234375 L 6.3125 -3.71875 L 8.84375 -11.234375 L 12.15625 -11.234375 L 7.734375 0.078125 L 4.84375 0.078125 Z M 0.421875 -11.234375 "/></g></g><g style="fill:#073b4c;fill-opacity:1;"><g transform="translate(217.51284, 276.304666)"><path style="stroke:none" d="M 1.484375 -15.3125 L 4.84375 -15.3125 L 4.84375 -12.46875 L 1.484375 -12.46875 Z M 1.578125 -11.234375 L 4.765625 -11.234375 L 4.765625 0 L 1.578125 0 Z M 1.578125 -11.234375 "/></g></g><g style="fill:#073b4c;fill-opacity:1;"><g transform="translate(223.8429, 276.304666)"><path style="stroke:none" d="M 1.421875 -11.234375 L 4.609375 -11.234375 L 4.609375 -9.640625 C 4.796875 -9.878906 4.992188 -10.109375 5.203125 -10.328125 C 5.421875 -10.546875 5.660156 -10.738281 5.921875 -10.90625 C 6.191406 -11.070312 6.488281 -11.203125 6.8125 -11.296875 C 7.132812 -11.398438 7.5 -11.453125 7.90625 -11.453125 C 9.125 -11.453125 10.0625 -11.078125 10.71875 -10.328125 C 11.382812 -9.585938 11.71875 -8.570312 11.71875 -7.28125 L 11.71875 0 L 8.53125 0 L 8.53125 -6.265625 C 8.53125 -7.023438 8.363281 -7.597656 8.03125 -7.984375 C 7.695312 -8.367188 7.222656 -8.5625 6.609375 -8.5625 C 5.992188 -8.5625 5.503906 -8.367188 5.140625 -7.984375 C 4.785156 -7.597656 4.609375 -7.023438 4.609375 -6.265625 L 4.609375 0 L 1.421875 0 Z M 1.421875 -11.234375 "/></g></g><g style="fill:#073b4c;fill-opacity:1;"><g transform="translate(236.901291, 276.304666)"><path style="stroke:none" d="M 6.453125 3.390625 C 5.535156 3.390625 4.65625 3.285156 3.8125 3.078125 C 2.976562 2.878906 2.203125 2.59375 1.484375 2.21875 L 2.578125 -0.171875 C 3.160156 0.148438 3.75 0.398438 4.34375 0.578125 C 4.9375 0.765625 5.613281 0.859375 6.375 0.859375 C 7.46875 0.859375 8.273438 0.597656 8.796875 0.078125 C 9.316406 -0.429688 9.578125 -1.191406 9.578125 -2.203125 L 9.578125 -2.75 C 9.109375 -2.175781 8.59375 -1.726562 8.03125 -1.40625 C 7.46875 -1.082031 6.757812 -0.921875 5.90625 -0.921875 C 5.25 -0.921875 4.617188 -1.035156 4.015625 -1.265625 C 3.421875 -1.492188 2.890625 -1.832031 2.421875 -2.28125 C 1.960938 -2.726562 1.597656 -3.273438 1.328125 -3.921875 C 1.054688 -4.578125 0.921875 -5.328125 0.921875 -6.171875 L 0.921875 -6.203125 C 0.921875 -7.046875 1.0625 -7.789062 1.34375 -8.4375 C 1.625 -9.09375 1.992188 -9.640625 2.453125 -10.078125 C 2.910156 -10.523438 3.441406 -10.863281 4.046875 -11.09375 C 4.648438 -11.332031 5.269531 -11.453125 5.90625 -11.453125 C 6.78125 -11.453125 7.492188 -11.289062 8.046875 -10.96875 C 8.609375 -10.644531 9.109375 -10.242188 9.546875 -9.765625 L 9.546875 -11.234375 L 12.734375 -11.234375 L 12.734375 -2.53125 C 12.734375 -0.53125 12.253906 0.941406 11.296875 1.890625 C 10.765625 2.421875 10.097656 2.800781 9.296875 3.03125 C 8.492188 3.269531 7.546875 3.390625 6.453125 3.390625 Z M 6.828125 -3.5625 C 7.222656 -3.5625 7.585938 -3.625 7.921875 -3.75 C 8.253906 -3.875 8.539062 -4.050781 8.78125 -4.28125 C 9.03125 -4.519531 9.222656 -4.796875 9.359375 -5.109375 C 9.503906 -5.429688 9.578125 -5.785156 9.578125 -6.171875 L 9.578125 -6.203125 C 9.578125 -6.578125 9.503906 -6.925781 9.359375 -7.25 C 9.222656 -7.570312 9.03125 -7.847656 8.78125 -8.078125 C 8.539062 -8.304688 8.253906 -8.484375 7.921875 -8.609375 C 7.585938 -8.742188 7.222656 -8.8125 6.828125 -8.8125 C 6.441406 -8.8125 6.082031 -8.742188 5.75 -8.609375 C 5.425781 -8.484375 5.140625 -8.304688 4.890625 -8.078125 C 4.648438 -7.847656 4.457031 -7.570312 4.3125 -7.25 C 4.175781 -6.925781 4.109375 -6.578125 4.109375 -6.203125 L 4.109375 -6.171875 C 4.109375 -5.378906 4.363281 -4.742188 4.875 -4.265625 C 5.394531 -3.796875 6.046875 -3.5625 6.828125 -3.5625 Z M 6.828125 -3.5625 "/></g></g><g style="fill:#073b4c;fill-opacity:1;"><g transform="translate(251.049617, 276.304666)"><path style="stroke:none" d=""/></g></g><g style="fill:#073b4c;fill-opacity:1;"><g transform="translate(257.337763, 276.304666)"><path style="stroke:none" d="M 5.375 0.203125 C 4.570312 0.203125 3.753906 0.0664062 2.921875 -0.203125 C 2.085938 -0.472656 1.296875 -0.898438 0.546875 -1.484375 L 1.90625 -3.578125 C 2.519531 -3.140625 3.128906 -2.804688 3.734375 -2.578125 C 4.347656 -2.359375 4.921875 -2.25 5.453125 -2.25 C 5.910156 -2.25 6.25 -2.320312 6.46875 -2.46875 C 6.6875 -2.625 6.796875 -2.828125 6.796875 -3.078125 L 6.796875 -3.125 C 6.796875 -3.289062 6.734375 -3.4375 6.609375 -3.5625 C 6.484375 -3.6875 6.3125 -3.796875 6.09375 -3.890625 C 5.875 -3.984375 5.625 -4.070312 5.34375 -4.15625 C 5.0625 -4.238281 4.769531 -4.328125 4.46875 -4.421875 C 4.070312 -4.535156 3.675781 -4.671875 3.28125 -4.828125 C 2.882812 -4.992188 2.523438 -5.203125 2.203125 -5.453125 C 1.878906 -5.710938 1.613281 -6.03125 1.40625 -6.40625 C 1.207031 -6.789062 1.109375 -7.253906 1.109375 -7.796875 L 1.109375 -7.84375 C 1.109375 -8.414062 1.21875 -8.921875 1.4375 -9.359375 C 1.65625 -9.796875 1.945312 -10.171875 2.3125 -10.484375 C 2.6875 -10.796875 3.117188 -11.023438 3.609375 -11.171875 C 4.109375 -11.328125 4.644531 -11.40625 5.21875 -11.40625 C 5.9375 -11.40625 6.660156 -11.289062 7.390625 -11.0625 C 8.128906 -10.832031 8.804688 -10.515625 9.421875 -10.109375 L 8.203125 -7.90625 C 7.640625 -8.226562 7.09375 -8.484375 6.5625 -8.671875 C 6.03125 -8.859375 5.5625 -8.953125 5.15625 -8.953125 C 4.769531 -8.953125 4.476562 -8.878906 4.28125 -8.734375 C 4.082031 -8.585938 3.984375 -8.398438 3.984375 -8.171875 L 3.984375 -8.140625 C 3.984375 -7.984375 4.046875 -7.84375 4.171875 -7.71875 C 4.296875 -7.601562 4.460938 -7.492188 4.671875 -7.390625 C 4.878906 -7.285156 5.117188 -7.179688 5.390625 -7.078125 C 5.671875 -6.984375 5.960938 -6.890625 6.265625 -6.796875 C 6.660156 -6.671875 7.0625 -6.519531 7.46875 -6.34375 C 7.875 -6.164062 8.234375 -5.953125 8.546875 -5.703125 C 8.867188 -5.453125 9.132812 -5.144531 9.34375 -4.78125 C 9.5625 -4.414062 9.671875 -3.972656 9.671875 -3.453125 L 9.671875 -3.421875 C 9.671875 -2.785156 9.5625 -2.238281 9.34375 -1.78125 C 9.125 -1.332031 8.816406 -0.960938 8.421875 -0.671875 C 8.035156 -0.378906 7.578125 -0.160156 7.046875 -0.015625 C 6.523438 0.128906 5.96875 0.203125 5.375 0.203125 Z M 5.375 0.203125 "/></g></g><g style="fill:#073b4c;fill-opacity:1;"><g transform="translate(267.859928, 276.304666)"><path style="stroke:none" d="M 6.75 0.25 C 5.914062 0.25 5.132812 0.109375 4.40625 -0.171875 C 3.6875 -0.453125 3.066406 -0.847656 2.546875 -1.359375 C 2.023438 -1.878906 1.613281 -2.488281 1.3125 -3.1875 C 1.019531 -3.894531 0.875 -4.6875 0.875 -5.5625 L 0.875 -5.59375 C 0.875 -6.394531 1.007812 -7.148438 1.28125 -7.859375 C 1.5625 -8.578125 1.945312 -9.203125 2.4375 -9.734375 C 2.925781 -10.265625 3.507812 -10.679688 4.1875 -10.984375 C 4.863281 -11.296875 5.613281 -11.453125 6.4375 -11.453125 C 7.375 -11.453125 8.179688 -11.28125 8.859375 -10.9375 C 9.546875 -10.601562 10.117188 -10.15625 10.578125 -9.59375 C 11.035156 -9.03125 11.367188 -8.378906 11.578125 -7.640625 C 11.796875 -6.910156 11.90625 -6.144531 11.90625 -5.34375 C 11.90625 -5.21875 11.898438 -5.082031 11.890625 -4.9375 C 11.890625 -4.800781 11.882812 -4.660156 11.875 -4.515625 L 4.046875 -4.515625 C 4.203125 -3.785156 4.519531 -3.234375 5 -2.859375 C 5.476562 -2.492188 6.078125 -2.3125 6.796875 -2.3125 C 7.328125 -2.3125 7.800781 -2.398438 8.21875 -2.578125 C 8.632812 -2.765625 9.066406 -3.054688 9.515625 -3.453125 L 11.34375 -1.84375 C 10.8125 -1.1875 10.164062 -0.671875 9.40625 -0.296875 C 8.65625 0.0664062 7.769531 0.25 6.75 0.25 Z M 8.8125 -6.5 C 8.707031 -7.207031 8.453125 -7.78125 8.046875 -8.21875 C 7.640625 -8.664062 7.101562 -8.890625 6.4375 -8.890625 C 5.769531 -8.890625 5.226562 -8.671875 4.8125 -8.234375 C 4.394531 -7.804688 4.125 -7.226562 4 -6.5 Z M 8.8125 -6.5 "/></g></g><g style="fill:#073b4c;fill-opacity:1;"><g transform="translate(280.708714, 276.304666)"><path style="stroke:none" d="M 1.421875 -11.234375 L 4.609375 -11.234375 L 4.609375 -8.96875 C 4.929688 -9.738281 5.367188 -10.351562 5.921875 -10.8125 C 6.484375 -11.28125 7.242188 -11.492188 8.203125 -11.453125 L 8.203125 -8.109375 L 8.03125 -8.109375 C 6.96875 -8.109375 6.128906 -7.785156 5.515625 -7.140625 C 4.910156 -6.503906 4.609375 -5.507812 4.609375 -4.15625 L 4.609375 0 L 1.421875 0 Z M 1.421875 -11.234375 "/></g></g><g style="fill:#073b4c;fill-opacity:1;"><g transform="translate(289.470199, 276.304666)"><path style="stroke:none" d="M 0.421875 -11.234375 L 3.796875 -11.234375 L 6.3125 -3.71875 L 8.84375 -11.234375 L 12.15625 -11.234375 L 7.734375 0.078125 L 4.84375 0.078125 Z M 0.421875 -11.234375 "/></g></g><g style="fill:#073b4c;fill-opacity:1;"><g transform="translate(302.046492, 276.304666)"><path style="stroke:none" d="M 1.484375 -15.3125 L 4.84375 -15.3125 L 4.84375 -12.46875 L 1.484375 -12.46875 Z M 1.578125 -11.234375 L 4.765625 -11.234375 L 4.765625 0 L 1.578125 0 Z M 1.578125 -11.234375 "/></g></g><g style="fill:#073b4c;fill-opacity:1;"><g transform="translate(308.376553, 276.304666)"><path style="stroke:none" d="M 6.734375 0.25 C 5.890625 0.25 5.109375 0.0976562 4.390625 -0.203125 C 3.671875 -0.515625 3.050781 -0.929688 2.53125 -1.453125 C 2.019531 -1.984375 1.613281 -2.597656 1.3125 -3.296875 C 1.019531 -4.003906 0.875 -4.757812 0.875 -5.5625 L 0.875 -5.59375 C 0.875 -6.394531 1.019531 -7.148438 1.3125 -7.859375 C 1.613281 -8.578125 2.019531 -9.203125 2.53125 -9.734375 C 3.050781 -10.265625 3.671875 -10.679688 4.390625 -10.984375 C 5.109375 -11.296875 5.898438 -11.453125 6.765625 -11.453125 C 7.828125 -11.453125 8.707031 -11.28125 9.40625 -10.9375 C 10.113281 -10.601562 10.734375 -10.144531 11.265625 -9.5625 L 9.3125 -7.46875 C 8.945312 -7.84375 8.570312 -8.140625 8.1875 -8.359375 C 7.800781 -8.585938 7.320312 -8.703125 6.75 -8.703125 C 6.34375 -8.703125 5.972656 -8.617188 5.640625 -8.453125 C 5.316406 -8.296875 5.03125 -8.078125 4.78125 -7.796875 C 4.539062 -7.515625 4.351562 -7.1875 4.21875 -6.8125 C 4.09375 -6.445312 4.03125 -6.054688 4.03125 -5.640625 L 4.03125 -5.59375 C 4.03125 -5.164062 4.09375 -4.757812 4.21875 -4.375 C 4.351562 -4 4.546875 -3.671875 4.796875 -3.390625 C 5.046875 -3.117188 5.347656 -2.898438 5.703125 -2.734375 C 6.054688 -2.578125 6.445312 -2.5 6.875 -2.5 C 7.40625 -2.5 7.867188 -2.601562 8.265625 -2.8125 C 8.671875 -3.03125 9.066406 -3.320312 9.453125 -3.6875 L 11.328125 -1.796875 C 10.773438 -1.203125 10.148438 -0.710938 9.453125 -0.328125 C 8.753906 0.0546875 7.847656 0.25 6.734375 0.25 Z M 6.734375 0.25 "/></g></g><g style="fill:#073b4c;fill-opacity:1;"><g transform="translate(320.34499, 276.304666)"><path style="stroke:none" d="M 6.75 0.25 C 5.914062 0.25 5.132812 0.109375 4.40625 -0.171875 C 3.6875 -0.453125 3.066406 -0.847656 2.546875 -1.359375 C 2.023438 -1.878906 1.613281 -2.488281 1.3125 -3.1875 C 1.019531 -3.894531 0.875 -4.6875 0.875 -5.5625 L 0.875 -5.59375 C 0.875 -6.394531 1.007812 -7.148438 1.28125 -7.859375 C 1.5625 -8.578125 1.945312 -9.203125 2.4375 -9.734375 C 2.925781 -10.265625 3.507812 -10.679688 4.1875 -10.984375 C 4.863281 -11.296875 5.613281 -11.453125 6.4375 -11.453125 C 7.375 -11.453125 8.179688 -11.28125 8.859375 -10.9375 C 9.546875 -10.601562 10.117188 -10.15625 10.578125 -9.59375 C 11.035156 -9.03125 11.367188 -8.378906 11.578125 -7.640625 C 11.796875 -6.910156 11.90625 -6.144531 11.90625 -5.34375 C 11.90625 -5.21875 11.898438 -5.082031 11.890625 -4.9375 C 11.890625 -4.800781 11.882812 -4.660156 11.875 -4.515625 L 4.046875 -4.515625 C 4.203125 -3.785156 4.519531 -3.234375 5 -2.859375 C 5.476562 -2.492188 6.078125 -2.3125 6.796875 -2.3125 C 7.328125 -2.3125 7.800781 -2.398438 8.21875 -2.578125 C 8.632812 -2.765625 9.066406 -3.054688 9.515625 -3.453125 L 11.34375 -1.84375 C 10.8125 -1.1875 10.164062 -0.671875 9.40625 -0.296875 C 8.65625 0.0664062 7.769531 0.25 6.75 0.25 Z M 8.8125 -6.5 C 8.707031 -7.207031 8.453125 -7.78125 8.046875 -8.21875 C 7.640625 -8.664062 7.101562 -8.890625 6.4375 -8.890625 C 5.769531 -8.890625 5.226562 -8.671875 4.8125 -8.234375 C 4.394531 -7.804688 4.125 -7.226562 4 -6.5 Z M 8.8125 -6.5 "/></g></g></g></svg>